<?xml version="1.0" encoding="UTF-8"?>
<svg id="Ebene_1" data-name="Ebene 1" xmlns="http://www.w3.org/2000/svg" viewBox="0 0 1621.21 698.01">
  <defs>
    <style>
      .cls-1 {
        fill: #2788e2;
      }
    </style>
  </defs>
  <path class="cls-1" d="m361.35.12c-154.08,8.4-138.61,217.89-138.61,217.89l129.57,24.27,122.83-21.57C510.07,108.66,440.49-4.19,361.35.12Zm-67.69,150.74c-18.47-1.75-13.08-51.1,7.55-48,20.63,3.1,10.92,49.75-7.55,48Zm52.04,73.12c-18.07-2.2-27.91-12.31-43.69-42.11,0,0,20.8,19.96,42.91,23.06,22.11,3.1,49.58-2.3,49.58-2.3,0,0-14.25,25.56-48.81,21.35Zm61.48-57.75c-18.47-1.75-13.08-51.1,7.55-48s10.92,49.75-7.55,48Z"/>
  <path class="cls-1" d="m27.51,548.43h50.7s20.3,27.49,31.82,39.01c21.39,21.39,42.07,19.42,42.07,19.42,0,0-25.35-17.8-21.03-30.2,3.59-10.33,10.79-9.57,10.79-9.57,0,0-8.45-9.3-4.31-20.63s10.79-12.94,10.79-12.94c0,0-2.34-8.45,3.78-18.34s16.72-11.87,16.72-11.87c0,0-3.03-10.69,3.78-19.42,19.42-24.9,58.58-7.3,76.04,5.93,3.04,2.31-.36,11.33-6.56,7.55,0,0-37.66-24.81-58.16-10.9-10.82,7.34-4.85,16.3-4.85,16.3l63.1,25.89s42.61,10.79,45.3-21.57-88.72-63.37-97.62-63.1-8.9-6.47-4.31-10.79,38.24-47.73,36.78-72.81-14.13-48.81-33.01-51.24c0,0-2.7,40.09-9.17,55.19-3.66,8.53-31.25,28.09-44.41,40.04-18.82,17.09-41.88,42.51-44.03,47.63s-59.87,0-59.87,0c0,0-8.09,30.53-8.09,47.52s3.78,48.9,3.78,48.9Z"/>
  <path class="cls-1" d="m234.47,254.28c-28.2-3.44-117.57-9.26-143.24-15.63C32.9,224.17,0,208.3,0,208.3v417.44s36.04,17.84,66.88,29.12c42.74,15.64,119.4,20.12,175.82,26.11,46.11,4.9,88.45,17.03,88.45,17.03v-422.83s-57.23-16.09-96.67-20.9Zm64.18,255.51c-2.21,15.55-14.02,23.19-14.02,23.19,0,0,6.61,13.62-1.89,26.97-5.25,8.25-14.83,9.44-14.83,9.44,0,0-.19,10.61-7.55,22.52-7.46,12.07-22.38,10.25-22.38,10.25,0,0,3.37,11.19-8.05,18.78-21.11,14.03-53.97-4.08-53.97-4.08,0,0-43.86,6.03-69.98-20.09-14.07-14.07-30.61-36.89-30.61-36.89H21.67s-4.61-38.96-4.61-59.7,9.88-58.01,9.88-58.01c0,0,58.02,6.25,60.65,0,2.63-6.26,30.78-37.29,53.76-58.15,16.07-14.59,26.76-13.2,31.22-23.61,7.9-18.44,8.64-62.02,8.64-62.02,19.82-6.47,53.66,23.73,53.53,56.49-.13,30.67-11.33,54.61-29.54,71.1-5.7,5.16-7.15,10.78-.94,11.98,10.67,2.05,99.96,32.6,94.39,71.84Z"/>
  <path class="cls-1" d="m175.1,510.32s-7.37,1.98-12.94,8.99-3.96,12.94-3.96,12.94c0,0,44.4,26.25,61.48,28.76s50.56,7.28,55.48-20.13c0,0-16.29,5.2-39.66-3.6s-60.4-26.96-60.4-26.96Z"/>
  <path class="cls-1" d="m155.04,542.32s-1.81-2.26-7.39,4.75-.96,13.94-.96,13.94c0,0,44.4,26.25,61.48,28.76s42,10.51,46.93-16.9c0,0-16.29,5.2-39.66-3.6s-60.4-26.96-60.4-26.96Z"/>
  <path class="cls-1" d="m148.45,573.02s-5.39.27-7.2,3.45c-4.42,7.79.41,11.87.41,11.87,0,0,19.71,14.24,39.55,22.29,16,6.49,42.85,13.29,46.89-8.02,0,0-10.36-.15-28.1-5.14-24.04-6.77-51.55-24.45-51.55-24.45Z"/>
  <path class="cls-1" d="m609.35,238.65c-25.66,6.37-115.04,12.19-143.24,15.63-39.45,4.81-96.67,20.9-96.67,20.9v422.83s42.34-12.13,88.45-17.03c56.42-5.99,133.08-10.47,175.82-26.11,30.83-11.28,66.88-29.12,66.88-29.12V208.3s-32.9,15.87-91.23,30.35Zm29.75,363.88s-43.15,15.64-67.42,20.49-70.85,9.87-101.86,13.38-65.87,15.21-65.87,15.21v-31.28s40.45-10.79,64.18-14.56,69.48-6.55,102.09-12.56c28.43-5.24,68.88-21.96,68.88-21.96v31.28Zm0-58.79s-43.15,15.64-67.42,20.49c-24.27,4.85-70.85,9.87-101.86,13.38s-65.87,15.21-65.87,15.21v-31.28s40.45-10.79,64.18-14.56c23.73-3.78,69.48-6.55,102.09-12.56,28.43-5.24,68.88-21.96,68.88-21.96v31.28Zm0-118.64s-43.15,15.64-67.42,20.49-70.85,9.87-101.86,13.38-65.87,15.21-65.87,15.21v-31.28s40.45-10.79,64.18-14.56,69.48-6.55,102.09-12.56c28.43-5.24,68.88-21.96,68.88-21.96v31.28Zm0-58.79s-43.15,15.64-67.42,20.49-70.85,9.87-101.86,13.38-65.87,15.21-65.87,15.21v-31.28s40.45-10.79,64.18-14.56,69.48-6.55,102.09-12.56c28.43-5.24,68.88-21.96,68.88-21.96v31.28Zm0-60.4s-43.15,15.64-67.42,20.49-70.85,9.87-101.86,13.38-65.87,15.21-65.87,15.21v-31.28s40.45-10.79,64.18-14.56c23.73-3.78,69.48-6.55,102.09-12.56,28.43-5.24,68.88-21.96,68.88-21.96v31.28Z"/>
  <g>
    <path class="cls-1" d="m840.01,148.92h24.49v125.79h74.12v18.86h-98.62v-144.66Z"/>
    <path class="cls-1" d="m968.5,281.9c-10.04-9.29-15.06-23.21-15.06-41.78,0-17.52,4.42-31.11,13.25-40.77,8.85-9.65,21.94-14.49,39.32-14.49,15.72,0,27.77,4.12,36.16,12.36,8.39,8.24,12.58,19.24,12.58,33.02v19.76h-77.94c1.21,10.19,4.86,17.27,11,21.23,6.14,3.97,15.81,5.95,28.99,5.95,5.39,0,10.89-.52,16.51-1.57s10.58-2.39,14.93-4.04v17.97c-9.43,4.19-21.57,6.29-36.4,6.29-18.86,0-33.32-4.64-43.34-13.93Zm64.69-47.85v-7.41c0-7.63-2.1-13.44-6.29-17.4-4.2-3.97-10.95-5.96-20.22-5.96-11.1,0-18.85,2.4-23.25,7.19-4.42,4.79-6.64,12.66-6.64,23.58h56.39Z"/>
    <path class="cls-1" d="m1083.51,205.75h-16.18l2.25-18.65h38.41v106.47h-24.48v-87.83Zm-2.03-61.1h26.74v20.22h-26.74v-20.22Z"/>
    <path class="cls-1" d="m1146.41,281.67c-9.6-9.43-14.39-23.21-14.39-41.33s5.17-32.08,15.5-41.44c10.35-9.36,24.57-14.04,42.68-14.04,7.18,0,13.29.53,18.3,1.57,5.03,1.05,9.93,2.7,14.72,4.94v18.2c-7.79-3.89-17.22-5.84-28.3-5.84-12.72,0-22.28,2.84-28.64,8.53-6.36,5.69-9.54,15.05-9.54,28.08s2.96,22.25,8.87,28.08c5.92,5.84,15.54,8.77,28.86,8.77,10.64,0,20.29-2.02,28.99-6.07v18.65c-9.89,4.05-21.42,6.07-34.6,6.07-18.72,0-32.87-4.72-42.45-14.16Z"/>
    <path class="cls-1" d="m1247.26,142.19h24.49v55.25c4.79-3.88,10.44-6.96,16.95-9.2,6.53-2.25,13.67-3.37,21.46-3.37,13.47,0,23.43,3.23,29.87,9.66,6.43,6.44,9.65,16.47,9.65,30.1v68.96h-24.26v-67.84c0-8.24-1.75-14-5.26-17.29-3.53-3.29-9.63-4.94-18.32-4.94-5.39,0-10.86,1.16-16.4,3.48s-10.11,5.36-13.69,9.09v77.5h-24.49v-151.39Z"/>
    <path class="cls-1" d="m1392.37,286.95c-5.7-5.91-8.54-14.27-8.54-25.04v-55.71h-15.72v-19.09h15.72v-24.49l24.26-7.41v31.9h28.3l-1.57,19.09h-26.73v54.35c0,6.14,1.39,10.45,4.15,12.91,2.78,2.48,7.46,3.71,14.04,3.71,4.04,0,8.32-.75,12.81-2.25v17.3c-5.85,2.39-12.96,3.59-21.35,3.59-11.22,0-19.69-2.96-25.37-8.87Z"/>
    <path class="cls-1" d="m1469.18,281.9c-10.04-9.29-15.06-23.21-15.06-41.78,0-17.52,4.42-31.11,13.25-40.77,8.85-9.65,21.94-14.49,39.32-14.49,15.72,0,27.77,4.12,36.16,12.36s12.58,19.24,12.58,33.02v19.76h-77.94c1.21,10.19,4.86,17.27,11,21.23,6.14,3.97,15.81,5.95,28.99,5.95,5.39,0,10.89-.52,16.51-1.57,5.61-1.05,10.58-2.39,14.93-4.04v17.97c-9.43,4.19-21.57,6.29-36.4,6.29-18.86,0-33.32-4.64-43.34-13.93Zm64.69-47.85v-7.41c0-7.63-2.1-13.44-6.29-17.4-4.2-3.97-10.95-5.96-20.22-5.96-11.1,0-18.85,2.4-23.25,7.19-4.42,4.79-6.64,12.66-6.64,23.58h56.39Z"/>
    <path class="cls-1" d="m838.66,558.18v-21.56c13.93,5.39,28.22,8.09,42.9,8.09,12.14,0,20.93-1.43,26.4-4.27,5.47-2.84,8.21-8.16,8.21-15.95,0-4.94-1.17-8.87-3.49-11.79-2.32-2.92-6.11-5.43-11.33-7.53-5.25-2.09-13.11-4.49-23.58-7.18-15.59-4.04-26.51-9.17-32.81-15.38-6.29-6.22-9.43-14.79-9.43-25.72,0-12.88,4.72-22.88,14.17-29.99,9.43-7.11,23.2-10.68,41.33-10.68,7.93,0,15.61.57,23.01,1.69,7.42,1.12,13.44,2.5,18.08,4.15v21.57c-11.37-4.34-23.96-6.52-37.73-6.52-11.39,0-19.92,1.5-25.61,4.49-5.69,3-8.54,8.09-8.54,15.28,0,4.34,1.04,7.82,3.14,10.44,2.1,2.62,5.58,4.94,10.44,6.96,4.88,2.02,12.17,4.23,21.92,6.63,16.91,4.35,28.66,9.96,35.26,16.84,6.58,6.89,9.87,15.8,9.87,26.73,0,12.88-4.83,22.91-14.48,30.1-9.67,7.19-23.86,10.79-42.57,10.79s-33.76-2.39-45.15-7.19Z"/>
    <path class="cls-1" d="m964.68,456.65h21.11l1.35,10.56c4.94-4.34,10.25-7.56,15.94-9.66,5.7-2.09,12.36-3.14,20-3.14,15.87,0,27.93,4.27,36.16,12.8,8.24,8.54,12.36,22.16,12.36,40.88s-4.33,33.13-13.02,42.79c-8.7,9.65-20.82,14.49-36.4,14.49-12.89,0-23.89-3-33.01-8.98v55.25h-24.49v-154.99Zm74.58,80.64c5.08-6.43,7.64-16.25,7.64-29.43s-2.34-21.52-6.96-26.84c-4.64-5.31-12.43-7.97-23.36-7.97s-20.07,3.75-27.4,11.23v53.23c7.18,6.29,16.09,9.44,26.73,9.44s18.26-3.23,23.36-9.66Z"/>
    <path class="cls-1" d="m1095.4,456.65h22.47l1.35,12.36c5.08-3.3,11.15-6.29,18.19-8.98s14-4.57,20.89-5.62v18.65c-6.45,1.2-13.4,3.03-20.89,5.5s-13.33,5.05-17.51,7.75v76.82h-24.49v-106.47Z"/>
    <path class="cls-1" d="m1170.65,556.95c-7.18-5.61-10.79-13.66-10.79-24.15s3.56-18.76,10.68-24.81c7.11-6.07,17.79-9.1,32.01-9.1h34.15v-4.72c0-5.24-.79-9.32-2.36-12.24-1.57-2.92-4.46-5.05-8.65-6.41-4.2-1.34-10.18-2.02-17.97-2.02-12.58,0-24.35,1.87-35.26,5.62v-18.2c5.08-1.95,11.08-3.52,17.97-4.72,6.87-1.2,14.15-1.8,21.77-1.8,15.89,0,27.82,3.23,35.83,9.66,8.02,6.44,12.03,16.63,12.03,30.55v68.51h-20.89l-1.57-10.79c-4.5,4.35-9.96,7.6-16.4,9.77-6.43,2.18-14.29,3.26-23.58,3.26-10.79,0-19.78-2.81-26.96-8.43Zm52.33-12.69c5.54-2.39,10.11-5.77,13.71-10.11v-18.65h-33.69c-7.2,0-12.39,1.34-15.61,4.04-3.24,2.7-4.84,6.96-4.84,12.8,0,5.39,1.81,9.32,5.39,11.79,3.6,2.48,8.99,3.71,16.18,3.71s13.33-1.2,18.86-3.59Z"/>
    <path class="cls-1" d="m1293.73,551.21c-9.6-9.43-14.39-23.21-14.39-41.33s5.17-32.08,15.5-41.44c10.35-9.36,24.57-14.04,42.68-14.04,7.18,0,13.29.53,18.3,1.57,5.03,1.05,9.93,2.7,14.72,4.94v18.2c-7.79-3.89-17.22-5.84-28.3-5.84-12.72,0-22.28,2.84-28.64,8.53-6.36,5.69-9.54,15.05-9.54,28.08s2.96,22.25,8.87,28.08c5.92,5.84,15.54,8.77,28.86,8.77,10.64,0,20.29-2.02,28.99-6.07v18.65c-9.89,4.05-21.42,6.07-34.6,6.07-18.72,0-32.87-4.72-42.45-14.16Z"/>
    <path class="cls-1" d="m1394.58,411.73h24.49v55.25c4.79-3.88,10.44-6.96,16.95-9.2,6.53-2.25,13.67-3.37,21.46-3.37,13.47,0,23.43,3.23,29.87,9.66,6.43,6.44,9.65,16.47,9.65,30.1v68.96h-24.26v-67.84c0-8.24-1.75-14-5.26-17.29-3.53-3.29-9.63-4.94-18.32-4.94-5.39,0-10.86,1.16-16.4,3.48s-10.11,5.36-13.69,9.09v77.5h-24.49v-151.39Z"/>
    <path class="cls-1" d="m1534.97,551.44c-10.04-9.29-15.06-23.21-15.06-41.78,0-17.52,4.42-31.11,13.25-40.77,8.85-9.65,21.94-14.49,39.32-14.49,15.72,0,27.77,4.12,36.16,12.36,8.39,8.24,12.58,19.24,12.58,33.02v19.76h-77.94c1.21,10.19,4.86,17.27,11,21.23,6.14,3.97,15.81,5.95,28.99,5.95,5.39,0,10.89-.52,16.51-1.57,5.61-1.05,10.58-2.39,14.93-4.04v17.97c-9.43,4.19-21.57,6.29-36.4,6.29-18.86,0-33.32-4.64-43.34-13.93Zm64.69-47.85v-7.41c0-7.63-2.1-13.44-6.29-17.4-4.2-3.97-10.95-5.96-20.22-5.96-11.1,0-18.85,2.4-23.25,7.19-4.42,4.79-6.64,12.66-6.64,23.58h56.39Z"/>
  </g>
</svg>