<?xml version="1.0" encoding="utf-8"?>
<!-- Generator: Adobe Illustrator 27.5.0, SVG Export Plug-In . SVG Version: 6.00 Build 0)  -->
<svg version="1.1" id="Ebene_1" xmlns="http://www.w3.org/2000/svg" xmlns:xlink="http://www.w3.org/1999/xlink" x="0px" y="0px"
	 viewBox="0 0 37.82 31.04" style="enable-background:new 0 0 37.82 31.04;" xml:space="preserve">
<style type="text/css">
	.st0{opacity:0.5;fill:#283B90;stroke:#000000;stroke-width:1.5;stroke-miterlimit:10;}
	.st1{fill:#2788E2;}
	.st2{fill:#222651;}
	.st3{fill:#B41640;}
</style>
<path class="st1" d="M24.56,14.78v-2.69c0.52-0.69,1.04-1.24,1.55-1.66c0.52-0.45,1.14-0.95,1.86-1.5c1.04-0.79,1.73-1.35,2.07-1.66
	c0.35-0.31,0.52-0.69,0.52-1.14c0-0.83-0.73-1.24-2.18-1.24c-0.55,0-1.16,0.09-1.81,0.26c-0.62,0.17-1.21,0.38-1.76,0.62V1.1
	c0.66-0.24,1.57-0.47,2.75-0.67c1.21-0.24,2.4-0.36,3.57-0.36c2.14,0,3.76,0.43,4.87,1.3c1.14,0.83,1.71,1.9,1.71,3.21
	c0,0.9-0.17,1.64-0.52,2.23c-0.35,0.55-0.86,1.16-1.55,1.81c-0.38,0.35-0.69,0.62-0.93,0.83c-0.24,0.17-0.54,0.41-0.88,0.73h3.99
	v4.61H24.56z"/>
<g>
	<path class="st1" d="M26.6,9.01c2.15-1.67,3.45-2.39,3.2-3.05c-0.14-0.37-1.39-0.37-2.33-0.25c-0.95,0.12-3.4,1.21-3.4,1.21l0-6.79
		l-7.6,15.63L8.78,0.07H0v30.91h9.02V15.52l4.99,10.18h4.85l4.94-10.18v-3.68C24.59,10.57,26.49,9.1,26.6,9.01z"/>
	<rect x="23.81" y="15.52" class="st1" width="9.02" height="15.46"/>
</g>
</svg>
