<?xml version="1.0" encoding="utf-8"?>
<!-- Generator: Adobe Illustrator 27.5.0, SVG Export Plug-In . SVG Version: 6.00 Build 0)  -->
<svg version="1.1" xmlns="http://www.w3.org/2000/svg" xmlns:xlink="http://www.w3.org/1999/xlink" x="0px" y="0px"
	 viewBox="0 0 170.43 24.81" style="enable-background:new 0 0 170.43 24.81;" xml:space="preserve">
<style type="text/css">
	.st0{fill:#FFFFFF;stroke:#1D1D1B;stroke-miterlimit:10;}
	.st1{fill:none;stroke:#1D1D1B;stroke-miterlimit:10;stroke-dasharray:3;}
	.st2{fill:#2788E2;}
</style>
<g id="Ebene_1">
</g>
<g id="Fußleiste">
	<path class="st2" d="M307.02,21.26c0,0-2.68-0.13-6.1-0.28v-1.84l-1.29-1.29h-2.52l-1.42,1.42v1.48c-4.48-0.19-8.67-0.34-9.07-0.27
		c-0.9,0.16-3.02,0.99-3.02,0.99s-0.06,0.15-0.47-0.35c-0.41-0.5-0.04-1.51-0.04-1.51s1.04-0.35,1.04-0.82
		c0-0.47-0.91-0.56-0.91-0.56s0.78-0.52,0.95-0.95c0.17-0.43-0.56-0.86-0.56-0.86s0.8-0.41,0.86-0.78c0.06-0.37-0.6-0.91-0.6-0.91
		s0.19-0.52,0.17-0.99c-0.02-0.47-1.51,0.22-1.51,0.22s-0.22-0.56-0.65-0.56s-1.25,0.43-1.25,0.43s0.35-0.26,0.26-0.6
		c-0.09-0.35-1.3-0.04-1.3-0.04s0.22-0.37,0.56-0.86c0.35-0.5-0.78-0.43-0.78-0.43s0-0.76-0.35-0.86c-0.35-0.11-0.56,0.35-0.56,0.35
		s-0.35-0.26-0.78-0.09s0,1.17,0,1.17s-0.43,0.17-0.78,0c-0.35-0.17-2.03,0.82-2.03,0.82s-0.26-0.67-0.65-0.82
		c-0.39-0.15-1.42,0.47-1.42,0.47s-0.22-0.56-0.3-0.82c-0.09-0.26-1.69,0.17-2.2,0.41c-0.5,0.24-1.65,0.36-1.65,0.36
		s0.04-0.31,0.29-1.13c0.25-0.83-0.49-0.89-0.49-0.89s0.19-0.4,0.28-0.91c0.09-0.51-0.79-0.76-0.79-0.76s0.33-0.16,0.32-0.52
		s-0.86-0.36-0.86-0.36s-0.06-0.78-0.71-0.45c-0.65,0.32,0.26,1.36-0.32,1.49c-0.58,0.13-0.45,1.49-0.45,1.49s-0.36-0.19-0.65,0.06
		c-0.29,0.26-0.45,1.04-0.45,1.04s-2.36-0.62-2.91-0.97c-0.55-0.36-2.72,0.65-2.72,0.65s-0.68-0.49-1.23-0.58
		c-0.55-0.1-0.84,0.71-0.84,0.71s-0.6-0.47-1.75-0.02c-1.14,0.45-0.86,3.5-0.86,3.5s-0.73-0.91-1.42-0.65
		c-0.69,0.26-0.41,2.27-0.43,2.37c-0.02,0.11-1.19,1.23-1.21,1.68c-0.02,0.45,1.08,1.08,1.08,1.08s-0.43,1.6-0.95,1.73
		c-0.52,0.13-4.42-0.39-5.57-0.73c-1.14-0.35-1.59-0.29-1.59-0.29v-2.13l-1.29-1.29h-2.52l-1.42,1.42v2.2l-5.23-0.26
		c0,0,0.54-0.09,0.49-0.54c-0.06-0.5-0.7-0.29-0.85-0.23c0.02-0.05,0.04-0.15,0.08-0.34c0.11-0.53-0.7,0.01-0.7,0.01
		s-0.05-1.04-0.94-0.81c-0.89,0.23-0.74,1.28-0.74,1.28s-0.4-0.64-1.09-0.4c-0.49,0.17,0.03,1.25,0.03,1.25l-6.21,1.03
		c0.09-0.02,0.41-0.12,0.5-0.71c0.06-0.43-0.63-0.39-1.15-0.31c0-0.01-0.01-0.02-0.03-0.01c0,0.01,0.01,0.01,0.01,0.02
		c-0.02,0-0.05,0.01-0.07,0.01c0.03-0.02,0.04-0.02,0.06-0.03c-0.02-0.03-0.04-0.11-0.05-0.31c-0.03-1.2-1.48,0.03-1.48,0.03
		s0.15-0.79-0.95-0.79c-1.1,0-0.73,0.91-0.73,0.91s-0.82-0.31-1.31,0.33c-0.49,0.65,0.48,0.97,0.48,0.97s-4.27,0.53-7.38-0.28
		c-3.11-0.81-11.37-1.27-11.37-1.27v-1.21h-3.02v-3.71h-4.32v4.23h-4.06c0,0-0.1-0.47-0.82-0.95c-0.63-0.42-2.17,0.47-2.55,0.7
		c0.07-0.09,0.13-0.36-0.11-1.14c-0.37-1.2-1.75,0.26-1.75,0.26s0.06-0.39-1.06-0.54c-1.12-0.15-1.08,0.95-1.08,0.95
		s-0.14-0.53-0.24-0.97c-0.1-0.44-0.52-0.22-0.52-0.22V5.5h-9.76v4.66l0.09,3.11v2.95c-0.03-0.18-0.27-0.67-2.16-0.88
		c-2.33-0.26-1.25,0.73-1.25,0.73s0,0-1.34-0.04c-1.34-0.04-2.33,2.16-2.33,2.16h-9.76v-2.33h-0.95v2.42h-4.23h-0.04V16.9h-2.59
		v-1.64h-2.07v1.99h-3.76v-0.93h-4.53h-0.6v-0.88h-0.37l0-2.7l0.2-0.3l-0.29-0.01v-0.98l0.09-0.05v-0.15l-0.46-1.5V9.59l0.06-0.38
		l-0.1-0.35l0.04-0.11l-0.09-0.13l-0.07,0.14l0.03,0.09l-0.25-0.19l-0.1,0.06l-0.05,0.31l0.03,0.32l0.18,0.26l0.04-0.28l0.01,0.13
		l0.02,0.1v0.16l-0.46,1.51v0.16l0.05,0.02v1.01h-0.28l0.12,0.27v1.52h-1.58l-0.3-0.3h-0.52v-3.54h0.35v-0.6h-1.41l-0.04-1.45
		l0.33-0.02V7.81l-0.37-0.06c0,0-0.24-1.84-0.88-2.57c-0.65-0.73-1.8-1.28-1.8-1.28V3.12h0.36V2.91h-0.36l-0.26-0.26V0.17L127.44,0
		l-0.17,0.17v1.56v0.91l-0.28,0.28h-0.38v0.2h0.38v0.78c0,0-0.62,0.06-1.78,1.3c-1.17,1.23-1.11,2.73-1.11,2.73l-0.36,0.04v0.56
		h0.38v1.34h-1.17v0.66h0.33v2.95l-0.41-0.41v-1.78l0.12-0.12v-0.49h-0.69v0.46l0.13,0.13v1.8l-1.15,1.15h-0.62v-1.54l0.12-0.27
		h-0.28v-1.01l0.05-0.02v-0.16l-0.46-1.51V9.56l0.02-0.1l0.01-0.13l0.04,0.28l0.18-0.26l0.03-0.32l-0.05-0.31l-0.1-0.06l-0.25,0.19
		l0.03-0.09l-0.07-0.14l-0.09,0.13l0.04,0.11l-0.1,0.35l0.06,0.38v0.14l-0.46,1.5v0.15l0.09,0.05v0.98l-0.29,0.01l0.2,0.3l0,3.07
		h-5.63V15h-0.53v-0.91l-0.34-0.34h-0.27l-0.38,0.38v0.86h-2.5v-0.35h-2.53v0.73h-2.01v1.23h-4.99v-0.97h-4.99V14.2h-5.05v-1.04
		h-0.84v0.78h-1.1v1.27h-6.73v-2.55h-7.17v2.2h-1.81v-0.6h-2.65v0.93l-0.93-0.93h-2.59v1.08H65.3v-1.25h-2.5l-0.65,0.65v0.41h-1.72
		v-1.01h-0.79v1.04h-0.22v-0.69h-1.04v0.65h-1.64v2.29h-2.29l-1.08-1.08v-1.09h-0.81l-1.2-1.2v1.71l-0.41,0.41v0.39h-0.39v-0.52
		h-1.17v0.6h-0.56v-6.51h-2.46V9.64l-0.35-0.35V8.44h-0.58V6.39h0.21V5.93l-0.21-0.21V5.39L45.2,5.14V3.5l-0.18-0.18l-0.16,0.16
		v1.67L44.6,5.42v0.3l-0.22,0.22v0.47h0.24v2.05h-0.51v0.9l-0.29,0.29v0.5h-3.6V9.52h-0.67V8.89h-0.37v0.6H38.3V9.09h-0.22v0.45
		h-0.26V8.83h-0.3v0.71h-0.47V8.87h-0.24v1.06h-0.52V9.52h-0.5v0.37h-2.17v8.46h-0.97v0.42H28.7l-0.49-0.49h-4.37v-0.49h-0.45v0.42
		h-0.94v0.58h-0.51v-2.26l-0.38,0.38v0.47H20.4V8.81l-0.39-0.39v1.05h-0.3V8.22l-0.29-0.29v0.72h-0.1V7.34L18.98,7V5.98l-0.25-0.25
		V4.82l-0.18-0.18V3.71l-0.19-0.19V3.21l0.16-0.16l-0.23-0.23l-0.22,0.22l0.17,0.17v0.34L18.07,3.7v0.95l-0.21,0.21v0.89l-0.24,0.24
		v1.02l-0.3,0.3v1.35h-0.11V7.94l-0.22,0.22v1.36h-0.33V8.38l-0.44,0.44v7.53h-5.86v-1.11l-0.4-0.4v-0.69H9.68v2.24H8.19v-2.22h-0.3
		v0.71l-0.32,0.32v1.25H7.37v1.12H6.55v-1.17H5.81v2.18l-0.65,0.02v-2.2H0.59V15H-1.2v-0.8h-2.46v0.71h-1.86v-1.49h-7.45v1.1
		l-9.79,0.32v-2.27h-2.77v4.21l-4.86,0.06V15.3h-5.83v4.47l-28.6,0.9c-1.14-0.15-1.82-0.24-1.82-0.24s-0.18-1.42-0.1-1.49
		c0.08-0.08,0.59,0.21,0.91,0.22c0.32,0.01,0.46,0.05,0.58,0.01c0.13-0.05-0.32-0.07-0.32-0.07s0.22-0.01,0.33-0.06
		c0.11-0.06-0.41,0.03-0.41,0.03s-0.1-0.08,0.2-0.08c0.3,0,0.13-0.23-0.3,0c-0.43,0.23-0.96-0.28-0.96-0.28s-0.05-0.25-1.19-0.08
		c-1.14,0.18-1.17-0.53-1.17-0.53s0.51-0.49,0.38-0.58C-68.8,17.42-69,17.79-69,17.79l-0.33-0.05c0,0,0.19-0.09,0.3-0.3
		c0.11-0.22-0.2,0.06-0.56,0.23c-0.35,0.16-0.48-0.06-0.71,0c-0.23,0.06-0.48,0.15-0.28,0.41c0.2,0.25,0.68,0.2,0.68,0.2
		s0.05,0.35,0,0.68c-0.05,0.33-0.38,0.71-0.38,0.71s-0.45,0.06-1.18,0.1c-0.72,0.03-1.83,0.39-1.81,0.23
		c0.01-0.15,0.03-1.19-0.05-2.15c-0.08-0.96,0.46-0.76,0.46-0.76s0.72,0.52,0.94,0.51c0.22-0.01,0.6-0.01,0.73-0.13
		c0.14-0.11,0.14-0.62,0-0.63c-0.14-0.01-0.81-0.44-0.86-0.63c-0.05-0.19,0.05-0.25,0-0.46c-0.05-0.2-0.43-0.18-0.43-0.18
		s-0.19-0.79-0.35-1.01c-0.16-0.23,0,0.99,0,0.99s-0.04,0.15-0.28,0.2c-0.24,0.05-0.35,0.03-0.35,0.03s-0.01-0.38-0.56-0.68
		c-0.54-0.3,0.35,0.99,0.35,0.99s-0.66,0.47-0.91,0.33c-0.25-0.14-0.94-0.03-0.94-0.03s-0.91,0.47-1.89,0.38
		c-0.98-0.09-0.82-0.32-2.21-0.24c-1.39,0.08-1.9,1.35-2.03,1.5c-0.13,0.15-0.22,0.55-0.22,0.55s-0.38,0.36-0.31,0.33
		c0.06-0.03,0.35-0.25,0.35-0.25s-0.18,0.33-0.1,0.26c0.08-0.07,0.2-0.27,0.2-0.27s0.06,0.6,0.08,0.09s0.13-0.67,0.13-0.67
		s1.25-1.38,1.62-1.08c0.37,0.3,0.27,0.87,0.27,0.87l-0.4,1.99c0,0-3.57,1.38-6.04,2.23c-3.83,0.2-9.95,0.1-10.82-0.15
		c-0.09-0.03-9.58-0.22-15.17-0.32c0.03-0.04,0.04-0.08,0.02-0.14c-0.05-0.14-0.14-0.16-0.23-0.16c0.14-0.06,0.29-0.19,0.2-0.52
		c-0.14-0.56-0.63-0.02-0.63-0.02s-0.02-0.34-0.39-0.3c-0.37,0.04-0.16,0.46-0.16,0.46s-0.35-0.24-0.55,0.02
		c-0.2,0.25,0.17,0.6,0.17,0.6l-1.61-0.3c0,0,0.66-0.01,0.72-0.45c0.06-0.43-0.35-0.5-0.35-0.5s0.5-0.08,0.31-0.56
		c-0.14-0.34-0.44-0.2-0.61-0.09c0.06-0.07,0.11-0.19,0.13-0.42c0.05-0.49-0.51-0.34-0.51-0.34s0.56-0.13,0.5-0.59
		c-0.05-0.4-0.57-0.31-0.7-0.29c0.11-0.03,0.51-0.15,0.31-0.47c-0.24-0.36-0.59,0-0.59,0s0.32-0.59-0.36-0.42
		c-0.55,0.13-0.23,0.77-0.08,1.02c-0.06-0.05-0.16-0.1-0.37-0.1c-0.45,0-0.2,0.75-0.2,0.75s-0.21-0.17-0.42,0.11
		c-0.21,0.28,0,0.64,0,0.64s-0.28-0.27-0.56,0.11c-0.28,0.38,0.39,0.64,0.39,0.64s-0.45,0.1-0.47,0.28
		c-0.03,0.18,0.33,0.42,0.33,0.42s-0.31-0.04-1.06-0.22c-0.31-0.08-0.77-0.13-1.21-0.17c-0.21-0.05-0.42-0.1-0.63-0.16
		c0.17-0.05,0.31-0.12,0.3-0.23c-0.02-0.28-0.51-0.31-0.51-0.31s0.59-0.31,0.5-0.81c-0.08-0.5-0.95-0.39-0.95-0.39
		s0.01-0.42-0.5-0.64c-0.52-0.22-1.12,0.28-1.12,0.28s-0.1-0.36-0.67-0.28c-0.57,0.08-0.67,0.7-0.67,0.7s-0.13-0.24-0.47,0.08
		c-0.35,0.32-0.17,0.56-0.17,0.56s-0.15,0.04-0.27,0.12c-0.05-0.01-0.1-0.01-0.15-0.02c-3.84-0.38-5.43-0.37-12.92,0
		c-0.33-0.48-0.49-1.48-0.49-1.48s1.45-0.87,1.42-1.33c-0.02-0.45-1.08-0.63-1.11-0.74c-0.02-0.11,0.91-2.12,0.22-2.38
		c-0.69-0.26-1.42,0.65-1.42,0.65s-0.63-2.5-1.77-2.96c-1.14-0.45-1.85,0.48-1.85,0.48s-0.29-0.81-0.84-0.71
		c-0.55,0.1-0.86,1.17-0.86,1.17s-0.08-0.31-0.7-0.25c-0.65,0.07-1.4,1.04-1.4,1.04s-0.16-0.78-0.45-1.04
		c-0.29-0.26-0.65-0.06-0.65-0.06s0.47-1.01-0.11-1.14c-0.58-0.13-0.78,0.2-0.78,0.2s0.39-1.39-0.55-1.33
		c-0.36,0.02-0.45,1.2-0.45,1.2s-1.01-0.33-0.92,0.18c0.09,0.51,0.73,0.99,0.73,0.99s-0.57,0.57-0.32,1.39
		c0.25,0.83-0.43,0.23-0.43,0.23s-0.11-1.05-0.62-1.3c-0.5-0.24-1.78-0.35-1.87-0.09c-0.09,0.26-0.3,0.82-0.3,0.82
		s-1.04-0.63-1.42-0.47c-0.39,0.15-0.39-0.04-0.39-0.04s-0.21-1.65-0.56-1.48s-0.78,0-0.78,0s0.43-0.99,0-1.17
		c-0.43-0.17-0.78,0.09-0.78,0.09s-0.22-0.45-0.56-0.35c-0.35,0.11-0.35,0.86-0.35,0.86s-1.12-0.06-0.78,0.43
		c0.35,0.5,0.56,0.86,0.56,0.86s-1.21-0.3-1.3,0.04c-0.09,0.35,0.26,0.6,0.26,0.6s-0.82-0.43-1.25-0.43c-0.43,0-0.9,1.42-0.9,1.42
		s-1.26,0.16-1.28,0.63c-0.02,0.47,1.25,1.3,1.25,1.3s-0.67,0.54-0.6,0.91c0.06,0.37,1.23,0.49,1.23,0.49s-1.01,0.12-0.84,0.55
		c0.17,0.43,0.58,1.01,0.58,1.01s-0.91,0.09-0.91,0.56c0,0.47,1.04,0.82,1.04,0.82s-0.66,0.4-1.07,0.9
		c-0.02,0.02-0.04,0.04-0.06,0.06c-1.32,0.06-2.69,0.12-4.12,0.18l-0.02,3.93l64.14,0l0.21,0.03c-0.02-0.01-0.05-0.02-0.08-0.03
		l58.47,0l0.91,0.04c-0.05-0.01-0.1-0.03-0.15-0.04l350.32-0.02V21.26z"/>
</g>
</svg>
